<svg width="24" height="25" viewBox="0 0 24 25" fill="none" xmlns="http://www.w3.org/2000/svg">
<path d="M7.50602 15.765C7.53229 15.8599 7.577 15.9488 7.6376 16.0265C7.6982 16.1041 7.7735 16.1691 7.85921 16.2177C7.94492 16.2662 8.03935 16.2974 8.13712 16.3095C8.23489 16.3216 8.33408 16.3143 8.42902 16.288C8.52397 16.2617 8.61281 16.217 8.69048 16.1564C8.76815 16.0958 8.83312 16.0205 8.88168 15.9348C8.93025 15.8491 8.96146 15.7547 8.97353 15.6569C8.98559 15.5591 8.97829 15.4599 8.95202 15.365L7.50602 15.765ZM3.20002 5.225C3.10471 5.19716 3.00481 5.18852 2.90612 5.1996C2.80744 5.21067 2.71194 5.24123 2.62516 5.2895C2.53838 5.33777 2.46205 5.40279 2.4006 5.4808C2.33915 5.5588 2.2938 5.64823 2.26719 5.7439C2.24057 5.83957 2.23322 5.93957 2.24556 6.03811C2.2579 6.13664 2.28968 6.23174 2.33906 6.31789C2.38844 6.40404 2.45444 6.47953 2.53323 6.53998C2.61202 6.60042 2.70202 6.64462 2.79802 6.67L3.20002 5.225ZM20.188 16.225C20.2857 16.2024 20.3778 16.1605 20.459 16.1017C20.5402 16.0429 20.6087 15.9684 20.6607 15.8827C20.7126 15.7969 20.7468 15.7017 20.7612 15.6025C20.7757 15.5033 20.7701 15.4022 20.7448 15.3052C20.7196 15.2082 20.6751 15.1173 20.6141 15.0377C20.5531 14.9582 20.4767 14.8917 20.3896 14.8422C20.3025 14.7927 20.2063 14.7611 20.1067 14.7494C20.0072 14.7377 19.9063 14.7461 19.81 14.774L20.188 16.225ZM10.197 18.059C10.507 19.179 9.82702 20.362 8.62302 20.675L9.00002 22.126C10.977 21.613 12.185 19.624 11.643 17.659L10.197 18.059ZM8.62302 20.675C7.41102 20.99 6.19502 20.286 5.88302 19.156L4.43702 19.556C4.97702 21.511 7.03102 22.638 9.00002 22.126L8.62302 20.675ZM5.88302 19.156C5.57302 18.036 6.25302 16.853 7.45702 16.54L7.08002 15.09C5.10302 15.603 3.89402 17.591 4.43702 19.556L5.88302 19.156ZM7.45702 16.54C8.66902 16.225 9.88502 16.929 10.197 18.059L11.643 17.659C11.103 15.704 9.04902 14.577 7.08002 15.089L7.45702 16.54ZM8.95202 15.365L6.80002 7.575L5.35402 7.975L7.50602 15.765L8.95202 15.365ZM4.90402 5.697L3.20002 5.225L2.79802 6.67L4.50302 7.143L4.90402 5.697ZM6.80002 7.575C6.67288 7.12499 6.43145 6.71553 6.09921 6.38644C5.76697 6.05736 5.35523 5.81985 4.90402 5.697L4.50502 7.143C4.93002 7.261 5.24602 7.584 5.35402 7.975L6.80002 7.575ZM11.11 18.585L20.188 16.225L19.811 14.774L10.732 17.134L11.11 18.585Z" fill="black"/>
<path d="M9.56501 9.23C9.08001 7.475 8.83801 6.597 9.25001 5.906C9.66101 5.214 10.566 4.979 12.376 4.508L14.296 4.01C16.106 3.54 17.011 3.304 17.724 3.703C18.437 4.103 18.68 4.98 19.164 6.736L19.679 8.598C20.164 10.353 20.407 11.231 19.995 11.923C19.583 12.614 18.678 12.85 16.868 13.32L14.948 13.819C13.138 14.289 12.233 14.524 11.52 14.125C10.807 13.725 10.565 12.848 10.08 11.093L9.56501 9.23Z" stroke="black" stroke-width="1.5"/>
</svg>
